<?xml version="1.0" encoding="UTF-8"?>
<svg width="45px" height="45px" viewBox="0 0 36 36" version="1.1" xmlns="http://www.w3.org/2000/svg" xmlns:xlink="http://www.w3.org/1999/xlink">
    <!-- Generator: sketchtool 54 (76480) - https://sketchapp.com -->
    <title>0AFAD323-FB87-4B12-AAE9-1C02CACB9B5A</title>
    <desc>Created with sketchtool.</desc>
    <g id="Assets" stroke="none" stroke-width="1" fill="none" fill-rule="evenodd">
        <g id="PIctos" transform="translate(-871.000000, -534.000000)" fill="#3C3C3C">
            <g id="user" transform="translate(871.000000, 534.000000)">
                <g id="hover-state">
                    <path d="M18,34 C9.178,34 2,26.822 2,18 C2,9.178 9.178,2 18,2 C26.822,2 34,9.178 34,18 C34,26.822 26.822,34 18,34 M18,0 C8.075,0 0,8.075 0,18 C0,27.925 8.075,36 18,36 C27.925,36 36,27.925 36,18 C36,8.075 27.925,0 18,0" id="Fill-5"></path>
                    <g id="user" transform="translate(6.000000, 6.000000)">
                        <g id="Group-18" transform="translate(3.000000, 2.000000)">
                            <path d="M9,2 C10.654,2 12,3.346 12,5 C12,6.654 10.654,8 9,8 C7.346,8 6,6.654 6,5 C6,3.346 7.346,2 9,2 M9,10 C11.757,10 14,7.757 14,5 C14,2.243 11.757,0 9,0 C6.243,0 4,2.243 4,5 C4,7.757 6.243,10 9,10" id="Fill-3"></path>
                            <path d="M16,17.812 C16,17.924 15.927,17.999 15.857,17.999 L2.143,17.999 C2.073,17.999 2,17.924 2,17.812 L2,17 C2,15.301 3.113,12.166 5.785,12.006 C7.92,13 10.08,13 12.215,12.006 C14.887,12.166 16,15.301 16,17 L16,17.812 Z M12,10 C11.845,10 11.691,10.036 11.553,10.105 C9.836,10.964 8.164,10.964 6.447,10.105 C6.309,10.036 6.155,10 6,10 C1.907,10 0,14.176 0,17 L0,17.812 C0,19.018 0.961,20 2.143,20 L15.857,20 C17.039,20 18,19.018 18,17.812 L18,17 C18,14.176 16.093,10 12,10 L12,10 Z" id="Fill-5"></path>
                        </g>
                    </g>
                </g>
            </g>
        </g>
    </g>
</svg>